HIERARCHY
ROOT newVegas:Hips
{
	OFFSET 0.000000 96.479958 0.000000
	CHANNELS 6 Xposition Yposition Zposition Xrotation Yrotation Zrotation
	JOINT newVegas:Pelvis
	{
		OFFSET 0.000000 0.000000 0.000000
		CHANNELS 3 Xrotation Yrotation Zrotation
		JOINT newVegas:LeftUpLeg
		{
			OFFSET 18.735201 -5.666702 -4.541200
			CHANNELS 3 Xrotation Yrotation Zrotation
			JOINT newVegas:LeftLeg
			{
				OFFSET -0.021200 -31.938179 0.493100
				CHANNELS 3 Xrotation Yrotation Zrotation
				JOINT newVegas:LeftFoot
				{
					OFFSET 0.021200 -31.938179 -4.336299
					CHANNELS 3 Xrotation Yrotation Zrotation
					JOINT newVegas:LeftToeBase
					{
						OFFSET 0.943001 -26.722000 15.023500
						CHANNELS 3 Xrotation Yrotation Zrotation
						End Site
						{
							OFFSET 0.000000 30.670183 0.000000
						}
					}
				}
				JOINT newVegas:Left_PantLeg
				{
					OFFSET 0.663870 -9.044666 -1.108900
					CHANNELS 3 Xrotation Yrotation Zrotation
					End Site
					{
						OFFSET 1.415995 20.635357 0.000000
					}
				}
			}
		}
		JOINT newVegas:RightUpLeg
		{
			OFFSET -18.735201 -5.666702 -4.541200
			CHANNELS 3 Xrotation Yrotation Zrotation
			JOINT newVegas:RightLeg
			{
				OFFSET 0.018946 -31.938133 0.493100
				CHANNELS 3 Xrotation Yrotation Zrotation
				JOINT newVegas:RightFoot
				{
					OFFSET -0.018946 -31.938126 -4.336299
					CHANNELS 3 Xrotation Yrotation Zrotation
					JOINT newVegas:RightToeBase
					{
						OFFSET -0.943001 -26.722004 15.023500
						CHANNELS 3 Xrotation Yrotation Zrotation
						End Site
						{
							OFFSET 0.000000 30.670187 0.000000
						}
					}
				}
				JOINT newVegas:Right_PantLeg
				{
					OFFSET -0.661674 -9.044716 -1.108900
					CHANNELS 3 Xrotation Yrotation Zrotation
					End Site
					{
						OFFSET -1.415958 20.635269 0.000000
					}
				}
			}
		}
	}
	JOINT newVegas:Spine
	{
		OFFSET 0.000000 10.199997 -0.299500
		CHANNELS 3 Xrotation Yrotation Zrotation
		JOINT newVegas:Spine1
		{
			OFFSET 0.000000 11.900002 -1.516600
			CHANNELS 3 Xrotation Yrotation Zrotation
			JOINT newVegas:Spine2
			{
				OFFSET 0.000000 13.600006 -2.842500
				CHANNELS 3 Xrotation Yrotation Zrotation
				JOINT newVegas:Neck
				{
					OFFSET 0.000000 9.624100 -2.890100
					CHANNELS 3 Xrotation Yrotation Zrotation
					JOINT newVegas:Head
					{
						OFFSET 0.000000 14.068802 -1.351900
						CHANNELS 3 Xrotation Yrotation Zrotation
						JOINT newVegas:Hair_Back
						{
							OFFSET 0.000000 3.231903 -17.524799
							CHANNELS 3 Xrotation Yrotation Zrotation
							End Site
							{
								OFFSET 0.000000 19.849884 0.000000
							}
						}
						JOINT newVegas:Hair_Front
						{
							OFFSET 0.000000 31.260406 4.573800
							CHANNELS 3 Xrotation Yrotation Zrotation
							JOINT newVegas:Hair_Front1
							{
								OFFSET 0.000000 2.284103 11.993300
								CHANNELS 3 Xrotation Yrotation Zrotation
								JOINT newVegas:Hair_Front2
								{
									OFFSET 0.000000 2.284103 11.993300
									CHANNELS 3 Xrotation Yrotation Zrotation
									End Site
									{
										OFFSET 0.000000 12.208862 0.000000
									}
								}
							}
						}
						JOINT newVegas:Jowel
						{
							OFFSET 0.000000 -7.458206 6.864100
							CHANNELS 3 Xrotation Yrotation Zrotation
							End Site
							{
								OFFSET 0.000000 19.849884 0.000000
							}
						}
					}
				}
				JOINT newVegas:LeftShoulder
				{
					OFFSET 15.263000 10.923401 -0.547700
					CHANNELS 3 Xrotation Yrotation Zrotation
					JOINT newVegas:LeftArm
					{
						OFFSET 25.438599 -2.830597 -13.032500
						CHANNELS 3 Xrotation Yrotation Zrotation
						JOINT newVegas:LeftForeArm
						{
							OFFSET 29.960503 0.000000 0.000000
							CHANNELS 3 Xrotation Yrotation Zrotation
							JOINT newVegas:LeftHand
							{
								OFFSET 27.849251 0.000000 0.000000
								CHANNELS 3 Xrotation Yrotation Zrotation
								JOINT newVegas:LeftHandThumb1
								{
									OFFSET 4.487587 -3.305161 6.305391
									CHANNELS 3 Xrotation Yrotation Zrotation
									JOINT newVegas:LeftHandThumb2
									{
										OFFSET 5.480453 -3.164139 3.164143
										CHANNELS 3 Xrotation Yrotation Zrotation
										JOINT newVegas:LeftHandThumb3
										{
											OFFSET 5.159721 -2.978973 2.978967
											CHANNELS 3 Xrotation Yrotation Zrotation
											End Site
											{
												OFFSET 2.494507 5.926697 1.738678
											}
										}
									}
								}
								JOINT newVegas:LeftHandIndex1
								{
									OFFSET 18.578728 -0.527832 5.208049
									CHANNELS 3 Xrotation Yrotation Zrotation
									JOINT newVegas:LeftHandIndex2
									{
										OFFSET 3.192009 0.000000 0.000000
										CHANNELS 3 Xrotation Yrotation Zrotation
										JOINT newVegas:LeftHandIndex3
										{
											OFFSET 3.835129 0.000000 0.000000
											CHANNELS 3 Xrotation Yrotation Zrotation
											End Site
											{
												OFFSET -0.034599 3.816971 0.371180
											}
										}
									}
								}
								JOINT newVegas:LeftHandMiddle1
								{
									OFFSET 18.476105 0.000000 0.000000
									CHANNELS 3 Xrotation Yrotation Zrotation
									JOINT newVegas:LeftHandMiddle2
									{
										OFFSET 3.324875 0.000000 0.000000
										CHANNELS 3 Xrotation Yrotation Zrotation
										JOINT newVegas:LeftHandMiddle3
										{
											OFFSET 4.596550 0.000000 0.000000
											CHANNELS 3 Xrotation Yrotation Zrotation
											End Site
											{
												OFFSET 0.057701 4.578827 0.399218
											}
										}
									}
								}
								JOINT newVegas:LeftHandRing1
								{
									OFFSET 17.732719 0.121887 -4.201567
									CHANNELS 3 Xrotation Yrotation Zrotation
									JOINT newVegas:LeftHandRing2
									{
										OFFSET 2.733170 0.000000 0.000000
										CHANNELS 3 Xrotation Yrotation Zrotation
										JOINT newVegas:LeftHandRing3
										{
											OFFSET 3.178268 0.000000 0.000000
											CHANNELS 3 Xrotation Yrotation Zrotation
											End Site
											{
												OFFSET 0.119102 3.170624 0.185394
											}
										}
									}
								}
								JOINT newVegas:LeftHandPinky1
								{
									OFFSET 15.989624 -0.606689 -7.535461
									CHANNELS 3 Xrotation Yrotation Zrotation
									JOINT newVegas:LeftHandPinky2
									{
										OFFSET 2.538986 0.000000 0.000000
										CHANNELS 3 Xrotation Yrotation Zrotation
										JOINT newVegas:LeftHandPinky3
										{
											OFFSET 2.593102 0.000000 0.000000
											CHANNELS 3 Xrotation Yrotation Zrotation
											End Site
											{
												OFFSET -0.150902 2.584198 0.152708
											}
										}
									}
								}
							}
							JOINT newVegas:Left_Sleeve
							{
								OFFSET 0.267448 -0.649796 0.577675
								CHANNELS 3 Xrotation Yrotation Zrotation
								End Site
								{
									OFFSET 0.000000 15.991241 0.000000
								}
							}
							JOINT newVegas:Left_CapeC
							{
								OFFSET 15.715958 -8.608795 -6.935905
								CHANNELS 3 Xrotation Yrotation Zrotation
								JOINT newVegas:Left_CapeC1
								{
									OFFSET 0.000000 -8.688499 0.000000
									CHANNELS 3 Xrotation Yrotation Zrotation
									End Site
									{
										OFFSET 0.000000 8.688499 0.000000
									}
								}
							}
						}
						JOINT newVegas:Left_CapeB
						{
							OFFSET 26.118385 -8.608795 -7.079235
							CHANNELS 3 Xrotation Yrotation Zrotation
							JOINT newVegas:Left_CapeB1
							{
								OFFSET 0.000000 -8.688499 0.000000
								CHANNELS 3 Xrotation Yrotation Zrotation
								End Site
								{
									OFFSET 0.000000 8.688499 0.000000
								}
							}
						}
						JOINT newVegas:Left_CapeA
						{
							OFFSET 5.115639 -8.608795 -10.395809
							CHANNELS 3 Xrotation Yrotation Zrotation
							JOINT newVegas:Left_CapeA1
							{
								OFFSET 0.000000 -8.688499 0.000000
								CHANNELS 3 Xrotation Yrotation Zrotation
								End Site
								{
									OFFSET 0.000000 8.688499 0.000000
								}
							}
						}
					}
				}
				JOINT newVegas:RightShoulder
				{
					OFFSET -15.263000 10.923401 -0.547700
					CHANNELS 3 Xrotation Yrotation Zrotation
					JOINT newVegas:RightArm
					{
						OFFSET -25.438599 -2.830597 -13.032500
						CHANNELS 3 Xrotation Yrotation Zrotation
						JOINT newVegas:RightForeArm
						{
							OFFSET -29.960503 0.000000 0.000000
							CHANNELS 3 Xrotation Yrotation Zrotation
							JOINT newVegas:RightHand
							{
								OFFSET -27.849251 0.000000 0.000000
								CHANNELS 3 Xrotation Yrotation Zrotation
								JOINT newVegas:RightHandThumb1
								{
									OFFSET -4.487587 -3.305161 6.305391
									CHANNELS 3 Xrotation Yrotation Zrotation
									JOINT newVegas:RightHandThumb2
									{
										OFFSET -5.480453 -3.164139 3.164143
										CHANNELS 3 Xrotation Yrotation Zrotation
										JOINT newVegas:RightHandThumb3
										{
											OFFSET -5.159721 -2.978973 2.978967
											CHANNELS 3 Xrotation Yrotation Zrotation
											End Site
											{
												OFFSET -2.494507 5.926697 1.738678
											}
										}
									}
								}
								JOINT newVegas:RightHandIndex1
								{
									OFFSET -18.578728 -0.527832 5.208049
									CHANNELS 3 Xrotation Yrotation Zrotation
									JOINT newVegas:RightHandIndex2
									{
										OFFSET -3.192009 0.000000 0.000000
										CHANNELS 3 Xrotation Yrotation Zrotation
										JOINT newVegas:RightHandIndex3
										{
											OFFSET -3.835129 0.000000 0.000000
											CHANNELS 3 Xrotation Yrotation Zrotation
											End Site
											{
												OFFSET 0.034599 3.816971 0.371180
											}
										}
									}
								}
								JOINT newVegas:RightHandMiddle1
								{
									OFFSET -18.476105 0.000000 0.000000
									CHANNELS 3 Xrotation Yrotation Zrotation
									JOINT newVegas:RightHandMiddle2
									{
										OFFSET -3.324875 0.000000 0.000000
										CHANNELS 3 Xrotation Yrotation Zrotation
										JOINT newVegas:RightHandMiddle3
										{
											OFFSET -4.596550 0.000000 0.000000
											CHANNELS 3 Xrotation Yrotation Zrotation
											End Site
											{
												OFFSET -0.057701 4.578827 0.399218
											}
										}
									}
								}
								JOINT newVegas:RightHandRing1
								{
									OFFSET -17.732719 0.121887 -4.201567
									CHANNELS 3 Xrotation Yrotation Zrotation
									JOINT newVegas:RightHandRing2
									{
										OFFSET -2.733170 0.000000 0.000000
										CHANNELS 3 Xrotation Yrotation Zrotation
										JOINT newVegas:RightHandRing3
										{
											OFFSET -3.178268 0.000000 0.000000
											CHANNELS 3 Xrotation Yrotation Zrotation
											End Site
											{
												OFFSET -0.119102 3.170624 0.185394
											}
										}
									}
								}
								JOINT newVegas:RightHandPinky1
								{
									OFFSET -15.989624 -0.606689 -7.535461
									CHANNELS 3 Xrotation Yrotation Zrotation
									JOINT newVegas:RightHandPinky2
									{
										OFFSET -2.538986 0.000000 0.000000
										CHANNELS 3 Xrotation Yrotation Zrotation
										JOINT newVegas:RightHandPinky3
										{
											OFFSET -2.593102 0.000000 0.000000
											CHANNELS 3 Xrotation Yrotation Zrotation
											End Site
											{
												OFFSET 0.150902 2.584198 0.152708
											}
										}
									}
								}
							}
							JOINT newVegas:Right_CapeC
							{
								OFFSET -15.715958 -8.608795 -6.935905
								CHANNELS 3 Xrotation Yrotation Zrotation
								JOINT newVegas:Right_CapeC1
								{
									OFFSET 0.000000 -8.688499 0.000000
									CHANNELS 3 Xrotation Yrotation Zrotation
									End Site
									{
										OFFSET 0.000000 8.688499 0.000000
									}
								}
							}
							JOINT newVegas:Right_Sleeve
							{
								OFFSET -0.267448 -0.649994 0.577675
								CHANNELS 3 Xrotation Yrotation Zrotation
								End Site
								{
									OFFSET 0.000000 15.991302 0.000000
								}
							}
						}
						JOINT newVegas:Right_CapeA
						{
							OFFSET -5.115540 -8.608795 -10.395824
							CHANNELS 3 Xrotation Yrotation Zrotation
							JOINT newVegas:Right_CapeA1
							{
								OFFSET 0.000000 -8.688499 0.000000
								CHANNELS 3 Xrotation Yrotation Zrotation
								End Site
								{
									OFFSET 0.000000 8.688499 0.000000
								}
							}
						}
						JOINT newVegas:Right_CapeB
						{
							OFFSET -26.118187 -8.608795 -7.079266
							CHANNELS 3 Xrotation Yrotation Zrotation
							JOINT newVegas:Right_CapeB1
							{
								OFFSET 0.000000 -8.688499 0.000000
								CHANNELS 3 Xrotation Yrotation Zrotation
								End Site
								{
									OFFSET 0.000000 8.688499 0.000000
								}
							}
						}
					}
				}
				JOINT newVegas:Left_Collar
				{
					OFFSET 18.625099 8.655502 8.828100
					CHANNELS 3 Xrotation Yrotation Zrotation
					JOINT newVegas:Left_Collar1
					{
						OFFSET 14.783401 10.540405 -1.259500
						CHANNELS 3 Xrotation Yrotation Zrotation
						End Site
						{
							OFFSET 0.000000 18.199875 0.000000
						}
					}
				}
				JOINT newVegas:Collar_Back
				{
					OFFSET 0.000000 15.630707 -20.132601
					CHANNELS 3 Xrotation Yrotation Zrotation
					End Site
					{
						OFFSET 0.000000 22.523010 0.000000
					}
				}
				JOINT newVegas:Left_Peck
				{
					OFFSET 17.239599 -5.132599 25.482599
					CHANNELS 3 Xrotation Yrotation Zrotation
					End Site
					{
						OFFSET 0.000000 22.523010 0.000000
					}
				}
				JOINT newVegas:Right_Peck
				{
					OFFSET -17.239599 -5.132202 25.482599
					CHANNELS 3 Xrotation Yrotation Zrotation
					End Site
					{
						OFFSET 0.000000 22.523010 0.000000
					}
				}
				JOINT newVegas:Right_Collar
				{
					OFFSET -18.625099 8.655792 8.828100
					CHANNELS 3 Xrotation Yrotation Zrotation
					JOINT newVegas:Right_Collar1
					{
						OFFSET -14.783401 10.539993 -1.259500
						CHANNELS 3 Xrotation Yrotation Zrotation
						End Site
						{
							OFFSET 0.000000 18.199631 0.000000
						}
					}
				}
			}
		}
		JOINT newVegas:Belly
		{
			OFFSET 0.000000 -6.540398 9.014299
			CHANNELS 3 Xrotation Yrotation Zrotation
			End Site
			{
				OFFSET 0.000000 11.566666 0.000000
			}
		}
	}
	JOINT newVegas:ElvisFacialAnim_Joint
	{
		OFFSET 1.000000 -95.330101 -8.825800
		CHANNELS 3 Xrotation Yrotation Zrotation
		End Site
		{
			OFFSET 0.000000 35.315800 0.000000
		}
	}
}
MOTION
Frames: 4
Frame Time: 0.016667
-1.701497 93.710999 2.385596 2.912644 -28.993316 1.190182 0.000000 0.000001 -0.000000 -19.098604 17.301757 13.859932 23.892396 12.128023 -1.505771 -6.535488 -3.216388 -8.276451 0.000000 -0.000000 0.000000 -0.000000 0.000000 -0.000000 -12.316776 -0.376341 -11.127484 16.862702 9.912843 0.865780 -8.236208 -1.383601 8.924546 -0.000000 -0.000000 0.000000 0.000001 -0.000001 -0.000000 7.835993 -0.359794 -2.682027 1.099254 -0.880535 2.383669 1.108681 -0.590407 2.446525 -0.922793 3.567082 -1.380654 -0.922796 3.567097 -1.380653 0.000000 -0.000001 0.000000 -0.922864 3.567092 -1.380649 -0.922653 3.567103 -1.380666 0.000000 0.000001 -0.000000 0.000000 -0.000001 0.000000 -0.055833 -8.758000 -0.067358 -55.250797 0.329432 -41.449365 11.606995 -65.826037 13.026196 -50.191034 12.352934 4.610849 17.563630 -5.694003 -12.929224 10.852304 26.148389 8.654090 -0.000001 0.000000 -0.000004 13.978268 1.203592 -55.006044 0.372674 1.163863 -65.441866 0.000001 0.000000 0.000003 7.502537 1.175416 -63.755281 1.809504 1.478252 -64.569842 0.000000 -0.000001 0.000000 8.574319 2.179081 -75.149020 -0.208022 1.014701 -57.856818 0.000000 -0.000002 0.000001 10.030099 13.637067 -84.750251 0.878836 0.065112 -64.595496 0.000000 -0.000002 0.000001 -0.000001 -0.000002 0.000000 -0.000001 -0.000002 0.000000 -0.000002 -0.000001 0.000001 0.000002 0.000001 -0.000000 0.000002 0.000000 -0.000001 0.000002 0.000001 -0.000000 0.000000 0.000000 -0.000001 4.849281 7.760137 5.560457 -0.933509 -2.176875 61.845628 11.299294 18.943478 -3.987561 -0.459209 6.620142 5.830250 15.788508 -2.734486 -17.205897 -2.198342 -31.113547 7.361198 0.000002 -0.000001 -0.000002 2.371237 -3.658868 8.486749 -2.131703 -2.469820 18.672199 -0.000000 -0.000000 -0.000001 -1.983658 -5.667160 13.658592 0.267052 -5.081388 26.987157 -0.000000 0.000000 -0.000000 -3.231393 -8.564185 11.751492 4.036748 -4.043061 33.257147 -0.000000 -0.000001 -0.000000 -6.483215 -11.360897 23.256427 10.728494 -2.555662 34.821261 -0.000001 0.000000 -0.000003 0.000000 0.000001 -0.000001 0.000000 0.000001 -0.000003 0.000000 0.000001 -0.000001 0.000002 -0.000001 -0.000000 0.000002 0.000000 -0.000000 0.000002 -0.000001 -0.000000 0.000002 -0.000000 -0.000000 0.000001 -0.000001 0.000001 0.000001 -0.000001 0.000001 0.000001 -0.000001 0.000001 0.000001 -0.000001 0.000001 0.000001 -0.000001 0.000001 0.000001 -0.000001 0.000001 0.000001 -0.000001 0.000001 -0.000000 -0.000001 0.000000 0.000000 0.000001 -0.000000 
-1.716280 93.704254 2.399396 2.996556 -29.004648 1.231148 -0.000000 -0.000001 0.000000 -19.153683 17.290400 13.868901 23.884946 12.125214 -1.508868 -6.540507 -3.213060 -8.292031 0.000000 0.000000 0.000000 0.000001 0.000000 -0.000000 -12.385233 -0.377518 -11.115458 16.874770 9.919438 0.863298 -8.257553 -1.373123 8.911566 0.000000 -0.000002 0.000000 0.000001 -0.000000 -0.000000 7.835995 -0.359843 -2.681677 1.099094 -0.876637 2.383003 1.108492 -0.585941 2.445759 -0.924529 3.575135 -1.386167 -0.924535 3.575136 -1.386167 -0.000000 0.000000 -0.000000 -0.924532 3.575145 -1.386168 -0.924462 3.575136 -1.386171 -0.000001 -0.000001 0.000000 -0.000000 0.000000 -0.000000 -0.070036 -8.744143 -0.065998 -54.884340 0.118804 -41.197604 11.633636 -65.908832 13.202016 -50.544363 12.176059 4.648515 17.563627 -5.694006 -12.929225 10.852303 26.148387 8.654089 0.000001 -0.000002 -0.000005 13.978267 1.203596 -55.006034 0.372676 1.163864 -65.441873 -0.000000 -0.000000 0.000003 7.502538 1.175417 -63.755281 1.809504 1.478253 -64.569849 0.000001 -0.000000 0.000003 8.574319 2.179089 -75.149020 -0.208022 1.014699 -57.856825 0.000000 0.000001 0.000000 10.030099 13.637073 -84.750258 0.878838 0.065115 -64.595496 0.000000 -0.000003 0.000000 0.000001 -0.000001 -0.000001 0.000001 -0.000001 -0.000001 -0.000000 -0.000000 -0.000001 -0.000001 0.000002 -0.000001 -0.000001 0.000001 -0.000002 -0.000001 0.000002 -0.000001 -0.000003 0.000001 -0.000001 4.841096 7.792197 5.599188 -0.876152 -2.203268 61.799736 11.304718 18.977114 -3.997569 -0.474806 6.723934 5.694309 15.788505 -2.734488 -17.205897 -2.198348 -31.113547 7.361197 0.000001 -0.000004 0.000001 2.371239 -3.658867 8.486745 -2.131697 -2.469822 18.672187 0.000001 -0.000000 -0.000000 -1.983646 -5.667154 13.658562 0.267035 -5.081388 26.987148 -0.000000 -0.000001 0.000004 -3.231395 -8.564180 11.751457 4.036765 -4.043064 33.257188 -0.000000 0.000001 -0.000002 -6.483208 -11.360906 23.256430 10.728486 -2.555660 34.821247 0.000001 0.000002 -0.000001 -0.000000 -0.000001 0.000001 0.000000 -0.000001 -0.000001 -0.000000 -0.000001 0.000001 -0.000001 0.000002 0.000001 -0.000000 0.000002 0.000002 -0.000001 0.000002 0.000001 -0.000000 0.000002 0.000002 0.000000 -0.000000 -0.000000 0.000000 -0.000000 -0.000000 0.000000 -0.000000 -0.000000 0.000000 -0.000000 -0.000000 0.000000 -0.000000 -0.000000 0.000000 -0.000000 -0.000000 0.000000 -0.000000 -0.000000 0.000000 -0.000001 -0.000000 -0.000000 -0.000001 0.000000 
-1.734401 93.693626 2.414707 3.094831 -29.009364 1.274159 0.000000 -0.000000 0.000000 -19.231451 17.245954 13.887025 23.900454 12.126822 -1.515758 -6.552071 -3.195390 -8.316143 -0.000000 0.000000 -0.000000 0.000000 -0.000000 -0.000000 -12.486954 -0.384367 -11.111440 16.903914 9.949222 0.854993 -8.269329 -1.365824 8.906211 0.000000 0.000001 0.000000 0.000000 0.000000 -0.000000 7.836139 -0.356895 -2.682266 1.098786 -0.869317 2.381754 1.110464 -0.579790 2.444748 -0.918022 3.589256 -1.398085 -0.918014 3.589243 -1.398082 0.000000 0.000003 -0.000001 -0.917949 3.589261 -1.398090 -0.918024 3.589246 -1.398082 0.000000 0.000000 0.000000 0.000000 0.000003 -0.000001 -0.072283 -8.728838 -0.064798 -54.827557 0.180460 -41.050420 11.670619 -66.019099 13.220209 -50.602932 12.088215 4.574798 17.563627 -5.694004 -12.929224 10.852301 26.148391 8.654093 0.000002 -0.000002 -0.000005 13.978266 1.203592 -55.006041 0.372676 1.163865 -65.441866 -0.000000 -0.000000 -0.000000 7.502538 1.175415 -63.755281 1.809505 1.478254 -64.569849 0.000000 0.000001 0.000002 8.574317 2.179083 -75.149020 -0.208022 1.014702 -57.856818 -0.000001 -0.000000 -0.000002 10.030098 13.637067 -84.750258 0.878839 0.065115 -64.595496 0.000000 -0.000003 -0.000000 -0.000002 0.000003 0.000001 -0.000002 0.000003 0.000001 -0.000003 0.000003 0.000002 0.000002 -0.000004 0.000001 0.000002 -0.000005 -0.000000 0.000002 -0.000004 0.000001 0.000000 -0.000005 -0.000000 4.839191 7.844304 5.594993 -0.848534 -2.241861 61.787264 11.331114 18.903923 -3.971955 -0.529485 6.824012 5.581380 15.788506 -2.734483 -17.205890 -2.198344 -31.113550 7.361203 0.000001 -0.000002 -0.000001 2.371248 -3.658866 8.486758 -2.131697 -2.469825 18.672183 -0.000000 0.000001 -0.000000 -1.983637 -5.667154 13.658565 0.267037 -5.081391 26.987180 -0.000000 -0.000001 0.000004 -3.231386 -8.564180 11.751446 4.036763 -4.043055 33.257195 -0.000000 0.000004 -0.000000 -6.483206 -11.360907 23.256427 10.728487 -2.555662 34.821244 0.000000 0.000005 -0.000004 0.000000 -0.000001 -0.000001 0.000001 -0.000001 -0.000001 -0.000000 -0.000000 0.000000 0.000002 0.000003 -0.000001 0.000002 0.000002 -0.000000 0.000002 0.000003 -0.000001 0.000002 0.000002 -0.000000 0.000001 0.000003 -0.000001 0.000001 0.000003 -0.000001 0.000001 0.000003 -0.000001 0.000001 0.000003 -0.000001 0.000001 0.000003 -0.000001 0.000001 0.000003 -0.000001 0.000001 0.000003 -0.000001 -0.000001 0.000001 -0.000000 0.000000 -0.000000 0.000000 
-1.751833 93.682747 2.428624 3.192267 -29.006372 1.315259 0.000000 -0.000000 -0.000000 -19.311004 17.183926 13.898368 23.931438 12.160716 -1.531504 -6.570518 -3.179727 -8.333779 -0.000000 0.000000 -0.000000 -0.000000 0.000000 0.000000 -12.570167 -0.403904 -11.094988 16.927651 9.936303 0.849631 -8.292733 -1.363980 8.899707 -0.000000 -0.000000 0.000000 0.000001 -0.000002 -0.000001 7.831317 -0.344728 -2.678639 1.104964 -0.859948 2.374746 1.116788 -0.570572 2.437568 -0.912186 3.602521 -1.410126 -0.912171 3.602524 -1.410119 0.000000 -0.000002 -0.000000 -0.912106 3.602418 -1.410096 -0.912180 3.602614 -1.410129 -0.000000 0.000001 -0.000000 0.000000 -0.000002 0.000000 -0.091583 -8.709464 -0.063617 -54.824009 0.285206 -40.971535 11.705490 -66.122576 13.258897 -50.558529 12.058929 4.470728 17.563627 -5.694003 -12.929228 10.852306 26.148391 8.654093 0.000003 0.000001 -0.000001 13.978265 1.203590 -55.006041 0.372675 1.163865 -65.441866 -0.000002 -0.000002 -0.000005 7.502537 1.175415 -63.755274 1.809503 1.478251 -64.569849 0.000001 0.000000 0.000004 8.574319 2.179084 -75.149020 -0.208023 1.014700 -57.856825 -0.000000 -0.000002 -0.000001 10.030097 13.637069 -84.750251 0.878838 0.065115 -64.595496 -0.000000 -0.000002 -0.000002 0.000003 0.000002 0.000001 0.000003 0.000002 0.000001 0.000002 0.000002 0.000001 0.000002 0.000000 0.000001 0.000002 -0.000001 -0.000000 0.000002 0.000000 0.000001 0.000001 -0.000001 -0.000000 4.835599 7.900901 5.599400 -0.826514 -2.297775 61.813765 11.287204 18.781845 -4.000379 -0.510025 6.876276 5.554243 15.788505 -2.734486 -17.205895 -2.198342 -31.113547 7.361201 0.000001 -0.000000 -0.000001 2.371243 -3.658866 8.486735 -2.131700 -2.469825 18.672190 -0.000000 0.000000 -0.000001 -1.983642 -5.667149 13.658560 0.267048 -5.081398 26.987174 -0.000001 -0.000001 0.000002 -3.231374 -8.564179 11.751460 4.036744 -4.043063 33.257188 -0.000001 0.000002 0.000004 -6.483195 -11.360899 23.256446 10.728482 -2.555658 34.821240 0.000001 -0.000000 -0.000002 -0.000000 -0.000001 -0.000001 -0.000000 -0.000000 -0.000002 -0.000000 -0.000001 0.000001 -0.000001 -0.000002 0.000000 -0.000000 -0.000002 0.000000 -0.000001 -0.000002 0.000000 -0.000000 -0.000002 0.000000 -0.000000 -0.000000 -0.000000 -0.000000 -0.000000 -0.000000 -0.000000 -0.000000 -0.000000 -0.000000 -0.000000 -0.000000 -0.000000 -0.000000 -0.000000 -0.000000 -0.000000 -0.000000 -0.000000 -0.000000 -0.000000 0.000000 0.000001 -0.000000 0.000000 -0.000000 -0.000000 
